<?xml version="1.0" encoding="UTF-8" standalone="no"?>

<svg
   width="145.52045mm"
   height="145.52045mm"
   viewBox="0 0 145.52045 145.52045"
   version="1.1"
   id="svg1"
   xmlns="http://www.w3.org/2000/svg"
   xmlns:svg="http://www.w3.org/2000/svg">
  <defs
     id="defs1" />
  <g
     id="layer1"
     transform="translate(-1095.5442,323.33797)">
    <g
       id="g136">
      <rect
         style="fill:#b3e0ff;fill-opacity:1;stroke:none;stroke-width:0.529167;stroke-linejoin:round;stroke-dasharray:none"
         id="rect130"
         width="145.52043"
         height="145.52043"
         x="1095.5443"
         y="-323.33798" />
      <path
         id="path130"
         style="fill:#463213;fill-opacity:1;stroke:none;stroke-width:0.529167;stroke-linejoin:round;stroke-dasharray:none"
         d="m 1241.0647,-226.81665 v 48.99912 h -145.5204 v -96.5208" />
      <g
         id="g135"
         transform="matrix(1.1,0,0,1.1,-116.83043,25.057732)"
         style="stroke-width:0.909091">
        <path
           id="path131"
           style="fill:#b3e0ff;fill-opacity:1;stroke:none;stroke-width:0.360795;stroke-linejoin:round;stroke-dashoffset:70"
           d="m 556.39291,-246.18497 v 23.55773 7.03135 a 5.455229,5.455229 45 0 0 5.45523,5.45523 l 7.03135,0 h 50.13544 a 12.48658,12.48658 45 0 0 -12.48658,-12.48658 h -37.64886 v -19.48098 z"
           transform="translate(571.47486)" />
        <path
           id="path132"
           style="fill:#463213;fill-opacity:1;stroke:none;stroke-width:0.360795;stroke-linejoin:round;stroke-dashoffset:70"
           d="m 556.39291,-246.18497 v 23.55773 7.03135 a 5.455229,5.455229 45 0 0 5.45523,5.45523 l 7.03135,0 h 50.13544 a 12.48658,12.48658 45 0 0 -12.48658,-12.48658 h -37.64886 v -19.48098 z"
           transform="rotate(180,882.56685,-250.57732)" />
      </g>
    </g>
  </g>
</svg>
